<svg width="40" height="40" viewBox="0 0 40 40" fill="none" xmlns="http://www.w3.org/2000/svg">
<path d="M20 10C17.2842 10 16.9436 10.0115 15.877 10.0602C14.8126 10.1087 14.0857 10.2778 13.4496 10.525C12.792 10.7805 12.2343 11.1225 11.6784 11.6784C11.1225 12.2343 10.7805 12.792 10.525 13.4496C10.2778 14.0857 10.1088 14.8126 10.0601 15.877C10.0115 16.9436 10 17.2842 10 20C10 22.7158 10.0115 23.0564 10.0601 24.123C10.1088 25.1874 10.2778 25.9143 10.525 26.5504C10.7805 27.208 11.1225 27.7656 11.6784 28.3216C12.2344 28.8775 12.792 29.2195 13.4496 29.475C14.0857 29.7222 14.8126 29.8912 15.877 29.9398C16.9436 29.9885 17.2842 30 20 30C22.7158 30 23.0564 29.9885 24.123 29.9398C25.1874 29.8913 25.9143 29.7222 26.5504 29.475C27.208 29.2195 27.7656 28.8775 28.3216 28.3216C28.8775 27.7656 29.2195 27.208 29.475 26.5504C29.7222 25.9143 29.8913 25.1874 29.9398 24.123C29.9885 23.0564 30 22.7158 30 20C30 17.2842 29.9885 16.9436 29.9398 15.877C29.8913 14.8126 29.7222 14.0857 29.475 13.4496C29.2195 12.792 28.8775 12.2343 28.3216 11.6784C27.7656 11.1225 27.208 10.7805 26.5504 10.525C25.9143 10.2778 25.1874 10.1087 24.123 10.0602C23.0564 10.0115 22.7158 10 20 10ZM20 11.8018C22.6701 11.8018 22.9864 11.812 24.0409 11.8601C25.0159 11.9046 25.5454 12.0675 25.8977 12.2044C26.3645 12.3858 26.6976 12.6025 27.0475 12.9524C27.3975 13.3024 27.6142 13.6355 27.7956 14.1023C27.9325 14.4546 28.0954 14.9842 28.1399 15.9591C28.188 17.0136 28.1982 17.3299 28.1982 20C28.1982 22.6701 28.188 22.9864 28.1399 24.0409C28.0954 25.0159 27.9325 25.5454 27.7956 25.8977C27.6142 26.3645 27.3975 26.6976 27.0475 27.0475C26.6976 27.3975 26.3645 27.6142 25.8977 27.7956C25.5454 27.9325 25.0158 28.0954 24.0409 28.1399C22.9866 28.188 22.6703 28.1982 20 28.1982C17.3297 28.1982 17.0135 28.188 15.9591 28.1399C14.9841 28.0954 14.4546 27.9325 14.1023 27.7956C13.6355 27.6142 13.3024 27.3975 12.9525 27.0475C12.6025 26.6976 12.3858 26.3645 12.2044 25.8977C12.0675 25.5454 11.9046 25.0158 11.8601 24.0409C11.812 22.9864 11.8018 22.6701 11.8018 20C11.8018 17.3299 11.812 17.0136 11.8601 15.9591C11.9046 14.9841 12.0675 14.4546 12.2044 14.1023C12.3858 13.6355 12.6025 13.3024 12.9524 12.9525C13.3024 12.6025 13.6355 12.3858 14.1023 12.2044C14.4546 12.0675 14.9842 11.9046 15.9591 11.8601C17.0136 11.812 17.3299 11.8018 20 11.8018" fill="#070707"/>
<path d="M20.0004 23.3333C18.1594 23.3333 16.667 21.8409 16.667 20C16.667 18.159 18.1594 16.6666 20.0004 16.6666C21.8413 16.6666 23.3337 18.159 23.3337 20C23.3337 21.8409 21.8413 23.3333 20.0004 23.3333ZM20.0004 14.8648C17.1643 14.8648 14.8652 17.1639 14.8652 20C14.8652 22.836 17.1643 25.1351 20.0004 25.1351C22.8364 25.1351 25.1355 22.836 25.1355 20C25.1355 17.1639 22.8364 14.8648 20.0004 14.8648ZM26.5384 14.6619C26.5384 15.3247 26.0011 15.8619 25.3384 15.8619C24.6757 15.8619 24.1384 15.3247 24.1384 14.6619C24.1384 13.9992 24.6757 13.4619 25.3384 13.4619C26.0011 13.4619 26.5384 13.9992 26.5384 14.6619Z" fill="#070707"/>
</svg>
