<svg width="227" height="24" viewBox="0 0 227 24" fill="none" xmlns="http://www.w3.org/2000/svg">
<path d="M7.82894 23.5385V2.37363H0V0.461538H17.7991V2.37363H9.97019V23.5385H7.82894Z" fill="white"/>
<path d="M20.3382 23.5385V0.461538H22.3456V10.3187H22.7471C23.0148 9.79121 23.3828 9.2967 23.8512 8.83517C24.3419 8.35165 24.9664 7.96703 25.7248 7.68132C26.5054 7.37363 27.4757 7.21978 28.6355 7.21978C29.8177 7.21978 30.8995 7.46154 31.8809 7.94506C32.8623 8.42857 33.6429 9.15385 34.2229 10.1209C34.8251 11.0879 35.1262 12.3077 35.1262 13.7802V23.5385H33.1188V13.9121C33.1188 12.1538 32.6727 10.9011 31.7805 10.1538C30.8883 9.38461 29.695 9 28.2006 9C26.5277 9 25.1337 9.53846 24.0185 10.6154C22.9032 11.6923 22.3456 13.3297 22.3456 15.5275V23.5385H20.3382Z" fill="white"/>
<path d="M46.9802 24C45.3073 24 43.8464 23.6593 42.5973 22.978C41.3705 22.2747 40.4114 21.2967 39.72 20.044C39.0285 18.7912 38.6828 17.3516 38.6828 15.7253V15.3297C38.6828 13.6813 39.0285 12.2418 39.72 11.011C40.4114 9.75824 41.3594 8.79121 42.5638 8.10989C43.7906 7.40659 45.1846 7.05495 46.746 7.05495C48.2627 7.05495 49.601 7.37363 50.7608 8.01099C51.943 8.62637 52.8686 9.52747 53.5377 10.7143C54.2069 11.8791 54.5414 13.2747 54.5414 14.9011V15.956H40.6902C40.7572 17.956 41.3705 19.5055 42.5304 20.6044C43.7125 21.6813 45.1958 22.2198 46.9802 22.2198C48.4969 22.2198 49.6679 21.8791 50.4931 21.1978C51.3407 20.5165 51.9876 19.6813 52.4337 18.6923L54.2403 19.4835C53.9058 20.2088 53.4374 20.9231 52.8351 21.6264C52.2552 22.3077 51.4969 22.8791 50.5601 23.3407C49.6233 23.7802 48.43 24 46.9802 24ZM40.7237 14.2418H52.5006C52.4114 12.5055 51.8426 11.1758 50.7943 10.2527C49.7459 9.30769 48.3965 8.83517 46.746 8.83517C45.1177 8.83517 43.7683 9.30769 42.6977 10.2527C41.627 11.1758 40.9691 12.5055 40.7237 14.2418Z" fill="white"/>
<path d="M60.8371 23.5385V9.2967H55.484V7.51648H60.8371V2.96703C60.8371 2.17582 61.049 1.56044 61.4728 1.12088C61.9189 0.681318 62.5769 0.461538 63.4468 0.461538H67.4616V2.24176H63.8482C63.1791 2.24176 62.8445 2.57143 62.8445 3.23077V7.51648H71.5434V9.2967H62.8445V23.5385H60.8371ZM71.5434 23.5385V7.51648H73.5508V23.5385H71.5434ZM72.5471 4.74725C72.0564 4.74725 71.6437 4.58242 71.3092 4.25275C70.9746 3.92308 70.8073 3.51648 70.8073 3.03297C70.8073 2.52747 70.9746 2.12088 71.3092 1.81319C71.6437 1.48352 72.0564 1.31868 72.5471 1.31868C73.0601 1.31868 73.4727 1.48352 73.785 1.81319C74.1195 2.12088 74.2868 2.52747 74.2868 3.03297C74.2868 3.51648 74.1195 3.92308 73.785 4.25275C73.4727 4.58242 73.0601 4.74725 72.5471 4.74725Z" fill="white"/>
<path d="M78.1077 23.5385V7.51648H80.0482V10.4835H80.4497C80.8512 9.62637 81.5092 8.86813 82.4237 8.20879C83.3382 7.52747 84.6653 7.18681 86.4051 7.18681C87.5872 7.18681 88.669 7.42857 89.6504 7.91209C90.6318 8.3956 91.4125 9.13187 91.9924 10.1209C92.5946 11.0879 92.8957 12.3077 92.8957 13.7802V23.5385H90.8883V13.9121C90.8883 12.1538 90.4422 10.8901 89.55 10.1209C88.6578 9.35165 87.4645 8.96703 85.9701 8.96703C84.2973 8.96703 82.9032 9.51648 81.788 10.6154C80.6728 11.6923 80.1151 13.3297 80.1151 15.5275V23.5385H78.1077Z" fill="white"/>
<path d="M104.75 24C103.077 24 101.616 23.6593 100.367 22.978C99.1401 22.2747 98.181 21.2967 97.4895 20.044C96.7981 18.7912 96.4523 17.3516 96.4523 15.7253V15.3297C96.4523 13.6813 96.7981 12.2418 97.4895 11.011C98.181 9.75824 99.1289 8.79121 100.333 8.10989C101.56 7.40659 102.954 7.05495 104.515 7.05495C106.032 7.05495 107.37 7.37363 108.53 8.01099C109.712 8.62637 110.638 9.52747 111.307 10.7143C111.976 11.8791 112.311 13.2747 112.311 14.9011V15.956H98.4598C98.5267 17.956 99.1401 19.5055 100.3 20.6044C101.482 21.6813 102.965 22.2198 104.75 22.2198C106.266 22.2198 107.437 21.8791 108.263 21.1978C109.11 20.5165 109.757 19.6813 110.203 18.6923L112.01 19.4835C111.675 20.2088 111.207 20.9231 110.605 21.6264C110.025 22.3077 109.266 22.8791 108.33 23.3407C107.393 23.7802 106.199 24 104.75 24ZM98.4932 14.2418H110.27C110.181 12.5055 109.612 11.1758 108.564 10.2527C107.515 9.30769 106.166 8.83517 104.515 8.83517C102.887 8.83517 101.538 9.30769 100.467 10.2527C99.3966 11.1758 98.7386 12.5055 98.4932 14.2418Z" fill="white"/>
<path d="M113.905 23.5385L121.567 0.461538H125.381L133.043 23.5385H130.801L128.794 17.4066H118.154L116.147 23.5385H113.905ZM118.757 15.4945H128.192L123.675 1.71428H123.273L118.757 15.4945Z" fill="white"/>
<path d="M135.583 23.5385V7.51648H137.524V9.52747H137.925C138.237 8.8022 138.695 8.27473 139.297 7.94506C139.921 7.61539 140.78 7.45055 141.873 7.45055H143.78V9.2967H141.639C140.412 9.2967 139.431 9.63736 138.695 10.3187C137.959 11 137.591 12.0659 137.591 13.5165V23.5385H135.583Z" fill="white"/>
<path d="M152.484 23.5385C151.614 23.5385 150.956 23.3187 150.51 22.8791C150.086 22.4396 149.874 21.8242 149.874 21.033V9.2967H144.655V7.51648H149.874V1.51648H151.881V7.51648H157.569V9.2967H151.881V20.7692C151.881 21.4286 152.216 21.7582 152.885 21.7582H156.699V23.5385H152.484Z" fill="white"/>
<path d="M159.306 23.5385V19.7143H162.384V4.28571H159.306V0.461538H168.942C172.087 0.461538 174.473 1.25275 176.101 2.83517C177.752 4.3956 178.577 6.72528 178.577 9.82418V14.1758C178.577 17.2747 177.752 19.6154 176.101 21.1978C174.473 22.7582 172.087 23.5385 168.942 23.5385H159.306ZM166.8 19.5824H169.009C170.793 19.5824 172.098 19.1209 172.923 18.1978C173.748 17.2747 174.161 15.978 174.161 14.3077V9.69231C174.161 8 173.748 6.7033 172.923 5.8022C172.098 4.87912 170.793 4.41758 169.009 4.41758H166.8V19.5824Z" fill="white"/>
<path d="M179.118 23.5385L185.274 0.461538H192.969L199.125 23.5385H194.575L193.304 18.4615H184.939L183.668 23.5385H179.118ZM185.976 14.4396H192.266L189.423 3.1978H188.82L185.976 14.4396Z" fill="white"/>
<path d="M209.494 24C206.55 24 204.208 23.2088 202.468 21.6264C200.729 20.022 199.859 17.7363 199.859 14.7692V9.23077C199.859 6.26374 200.729 3.98901 202.468 2.40659C204.208 0.802197 206.55 0 209.494 0C212.439 0 214.781 0.802197 216.52 2.40659C218.26 3.98901 219.13 6.26374 219.13 9.23077V14.7692C219.13 17.7363 218.26 20.022 216.52 21.6264C214.781 23.2088 212.439 24 209.494 24ZM209.494 20.1099C211.145 20.1099 212.427 19.6374 213.342 18.6923C214.256 17.7473 214.714 16.4835 214.714 14.9011V9.0989C214.714 7.51648 214.256 6.25275 213.342 5.30769C212.427 4.36264 211.145 3.89011 209.494 3.89011C207.866 3.89011 206.584 4.36264 205.647 5.30769C204.732 6.25275 204.275 7.51648 204.275 9.0989V14.9011C204.275 16.4835 204.732 17.7473 205.647 18.6923C206.584 19.6374 207.866 20.1099 209.494 20.1099Z" fill="white"/>
<path d="M223.822 24C222.929 24 222.171 23.7143 221.546 23.1429C220.944 22.5494 220.643 21.7912 220.643 20.8681C220.643 19.9451 220.944 19.1978 221.546 18.6264C222.171 18.033 222.929 17.7363 223.822 17.7363C224.736 17.7363 225.494 18.033 226.097 18.6264C226.699 19.1978 227 19.9451 227 20.8681C227 21.7912 226.699 22.5494 226.097 23.1429C225.494 23.7143 224.736 24 223.822 24Z" fill="white"/>
</svg>
